{"scene":0,"scenes":[{"nodes":[0]}],"asset":{"version":"2.0","generator":"https://github.com/mikedh/trimesh"},"accessors":[{"componentType":5125,"type":"SCALAR","bufferView":0,"count":36,"max":[7],"min":[0]},{"componentType":5126,"type":"VEC3","byteOffset":0,"bufferView":1,"count":8,"max":[1.100000023841858,0.07999999821186066,0.23000000417232513],"min":[-1.100000023841858,-0.07999999821186066,-0.23000000417232513]},{"componentType":5126,"type":"VEC3","byteOffset":0,"bufferView":2,"count":8,"max":[1.100000023841858,0.09000000357627869,0.07000000029802322],"min":[-1.100000023841858,-0.09000000357627869,-0.07000000029802322]},{"componentType":5126,"type":"VEC3","byteOffset":0,"bufferView":3,"count":8,"max":[0.07000000029802322,0.36000001430511475,0.07000000029802322],"min":[-0.07000000029802322,-0.36000001430511475,-0.07000000029802322]}],"meshes":[{"name":"Seat","extras":{"shape":"box","extents":[2.2,0.16,0.46]},"primitives":[{"attributes":{"POSITION":1},"indices":0,"mode":4,"material":0}]},{"name":"Back1","extras":{"shape":"box","extents":[2.2,0.18,0.14]},"primitives":[{"attributes":{"POSITION":2},"indices":0,"mode":4,"material":0}]},{"name":"Back2","extras":{"shape":"box","extents":[2.2,0.18,0.14]},"primitives":[{"attributes":{"POSITION":2},"indices":0,"mode":4,"material":0}]},{"name":"Leg","extras":{"shape":"box","extents":[0.14,0.72,0.14]},"primitives":[{"attributes":{"POSITION":3},"indices":0,"mode":4,"material":1}]},{"name":"Leg_1","extras":{"shape":"box","extents":[0.14,0.72,0.14]},"primitives":[{"attributes":{"POSITION":3},"indices":0,"mode":4,"material":1}]}],"materials":[{"pbrMetallicRoughness":{"baseColorFactor":[0.32941176470588235,0.2196078431372549,0.12941176470588237,1.0],"roughnessFactor":0.85,"metallicFactor":0.0},"name":"wood","doubleSided":false},{"pbrMetallicRoughness":{"baseColorFactor":[0.23137254901960785,0.25098039215686274,0.25098039215686274,1.0],"roughnessFactor":0.85,"metallicFactor":0.35},"name":"metal","doubleSided":false}],"nodes":[{"name":"world","children":[1,2,3,4]},{"name":"Seat","mesh":0,"matrix":[1.0,0.0,0.0,0.0,0.0,1.0,0.0,0.0,0.0,0.0,1.0,0.0,0.0,0.62,0.0,1.0]},{"name":"Back1","mesh":1,"matrix":[1.0,0.0,0.0,0.0,0.0,1.0,0.0,0.0,0.0,0.0,1.0,0.0,0.0,1.08,0.22,1.0]},{"name":"Back2","mesh":2,"matrix":[1.0,0.0,0.0,0.0,0.0,1.0,0.0,0.0,0.0,0.0,1.0,0.0,0.0,1.32,0.22,1.0]},{"name":"Leg","mesh":4,"matrix":[1.0,0.0,0.0,0.0,0.0,1.0,0.0,0.0,0.0,0.0,1.0,0.0,0.85,0.36,0.0,1.0]}],"buffers":[{"byteLength":432,"uri":"data:application/octet-stream;base64,"}],"bufferViews":[{"buffer":0,"byteOffset":0,"byteLength":144},{"buffer":0,"byteOffset":144,"byteLength":96},{"buffer":0,"byteOffset":240,"byteLength":96},{"buffer":0,"byteOffset":336,"byteLength":96}]}