{"scene":0,"scenes":[{"nodes":[0]}],"asset":{"version":"2.0","generator":"https://github.com/mikedh/trimesh"},"accessors":[{"componentType":5125,"type":"SCALAR","bufferView":0,"count":36,"max":[7],"min":[0]},{"componentType":5126,"type":"VEC3","byteOffset":0,"bufferView":1,"count":8,"max":[3.4000000953674316,1.7000000476837158,2.4000000953674316],"min":[-3.4000000953674316,-1.7000000476837158,-2.4000000953674316]},{"componentType":5126,"type":"VEC3","byteOffset":0,"bufferView":2,"count":8,"max":[3.4749999046325684,0.1599999964237213,2.4749999046325684],"min":[-3.4749999046325684,-0.1599999964237213,-2.4749999046325684]},{"componentType":5126,"type":"VEC3","byteOffset":0,"bufferView":3,"count":8,"max":[3.4749999046325684,0.36000001430511475,0.07999999821186066],"min":[-3.4749999046325684,-0.36000001430511475,-0.07999999821186066]},{"componentType":5126,"type":"VEC3","byteOffset":0,"bufferView":4,"count":8,"max":[2.9000000953674316,0.07999999821186066,0.4000000059604645],"min":[-2.9000000953674316,-0.07999999821186066,-0.4000000059604645]},{"componentType":5126,"type":"VEC3","byteOffset":0,"bufferView":5,"count":8,"max":[1.274999976158142,0.7250000238418579,0.05000000074505806],"min":[-1.274999976158142,-0.7250000238418579,-0.05000000074505806]},{"componentType":5126,"type":"VEC3","byteOffset":0,"bufferView":6,"count":8,"max":[0.824999988079071,0.7250000238418579,0.05000000074505806],"min":[-0.824999988079071,-0.7250000238418579,-0.05000000074505806]},{"componentType":5126,"type":"VEC3","byteOffset":0,"bufferView":7,"count":8,"max":[0.49000000953674316,1.0750000476837158,0.05999999865889549],"min":[-0.49000000953674316,-1.0750000476837158,-0.05999999865889549]},{"componentType":5126,"type":"VEC3","byteOffset":0,"bufferView":8,"count":8,"max":[0.03999999910593033,0.8100000023841858,0.05999999865889549],"min":[-0.03999999910593033,-0.8100000023841858,-0.05999999865889549]},{"componentType":5126,"type":"VEC3","byteOffset":0,"bufferView":9,"count":8,"max":[0.05000000074505806,1.125,0.05000000074505806],"min":[-0.05000000074505806,-1.125,-0.05000000074505806]},{"componentType":5126,"type":"VEC3","byteOffset":0,"bufferView":10,"count":8,"max":[1.649999976158142,0.12999999523162842,0.05000000074505806],"min":[-1.649999976158142,-0.12999999523162842,-0.05000000074505806]},{"componentType":5126,"type":"VEC3","byteOffset":0,"bufferView":11,"count":8,"max":[0.550000011920929,1.2999999523162842,2.450000047683716],"min":[-0.550000011920929,-1.2999999523162842,-2.450000047683716]},{"componentType":5125,"type":"SCALAR","bufferView":12,"count":144,"max":[25],"min":[0]},{"componentType":5126,"type":"VEC3","byteOffset":0,"bufferView":13,"count":26,"max":[0.07000000029802322,0.07000000029802322,1.600000023841858],"min":[-0.07000000029802322,-0.07000000029802322,-1.600000023841858]},{"componentType":5126,"type":"VEC3","byteOffset":0,"bufferView":14,"count":26,"max":[0.11999999731779099,0.11999999731779099,0.20999999344348907],"min":[-0.11999999731779099,-0.11999999731779099,-0.20999999344348907]}],"meshes":[{"name":"ShopShell","extras":{"shape":"box","extents":[6.8,3.4,4.8]},"primitives":[{"attributes":{"POSITION":1},"indices":0,"mode":4,"material":0}]},{"name":"FlatRoof","extras":{"shape":"box","extents":[6.95,0.32,4.95]},"primitives":[{"attributes":{"POSITION":2},"indices":0,"mode":4,"material":1}]},{"name":"Fascia","extras":{"shape":"box","extents":[6.95,0.72,0.16]},"primitives":[{"attributes":{"POSITION":3},"indices":0,"mode":4,"material":2}]},{"name":"Awning","extras":{"shape":"box","extents":[5.8,0.16,0.8]},"primitives":[{"attributes":{"POSITION":4},"indices":0,"mode":4,"material":2}]},{"name":"WindowL","extras":{"shape":"box","extents":[2.55,1.45,0.1]},"primitives":[{"attributes":{"POSITION":5},"indices":0,"mode":4,"material":3}]},{"name":"WindowR","extras":{"shape":"box","extents":[1.65,1.45,0.1]},"primitives":[{"attributes":{"POSITION":6},"indices":0,"mode":4,"material":3}]},{"name":"Door","extras":{"shape":"box","extents":[0.98,2.15,0.12]},"primitives":[{"attributes":{"POSITION":7},"indices":0,"mode":4,"material":4}]},{"name":"Frame","extras":{"shape":"box","extents":[0.08,1.62,0.12]},"primitives":[{"attributes":{"POSITION":8},"indices":0,"mode":4,"material":4}]},{"name":"Frame_1","extras":{"shape":"box","extents":[0.08,1.62,0.12]},"primitives":[{"attributes":{"POSITION":8},"indices":0,"mode":4,"material":4}]},{"name":"Frame_2","extras":{"shape":"box","extents":[0.08,1.62,0.12]},"primitives":[{"attributes":{"POSITION":8},"indices":0,"mode":4,"material":4}]},{"name":"Frame_3","extras":{"shape":"box","extents":[0.08,1.62,0.12]},"primitives":[{"attributes":{"POSITION":8},"indices":0,"mode":4,"material":4}]},{"name":"Frame_4","extras":{"shape":"box","extents":[0.08,1.62,0.12]},"primitives":[{"attributes":{"POSITION":8},"indices":0,"mode":4,"material":4}]},{"name":"DoorFrame","extras":{"shape":"box","extents":[0.1,2.25,0.1]},"primitives":[{"attributes":{"POSITION":9},"indices":0,"mode":4,"material":4}]},{"name":"ShopSignPanel","extras":{"shape":"box","extents":[3.3,0.26,0.1]},"primitives":[{"attributes":{"POSITION":10},"indices":0,"mode":4,"material":5}]},{"name":"SideExtension","extras":{"shape":"box","extents":[1.1,2.6,4.9]},"primitives":[{"attributes":{"POSITION":11},"indices":0,"mode":4,"material":6}]},{"name":"Drainpipe","extras":{"shape":"cylinder","height":3.2,"radius":0.07,"processed":true},"primitives":[{"attributes":{"POSITION":13},"indices":12,"mode":4,"material":7}]},{"name":"Vent1","extras":{"shape":"cylinder","height":0.42,"radius":0.12,"processed":true},"primitives":[{"attributes":{"POSITION":14},"indices":12,"mode":4,"material":8}]},{"name":"Vent2","extras":{"shape":"cylinder","height":0.42,"radius":0.12,"processed":true},"primitives":[{"attributes":{"POSITION":14},"indices":12,"mode":4,"material":8}]}],"materials":[{"pbrMetallicRoughness":{"baseColorFactor":[0.788235294117647,0.7215686274509804,0.5803921568627451,1.0],"roughnessFactor":0.85,"metallicFactor":0.0},"name":"cream","doubleSided":false},{"pbrMetallicRoughness":{"baseColorFactor":[0.2196078431372549,0.2,0.1803921568627451,1.0],"roughnessFactor":0.85,"metallicFactor":0.0},"name":"roof","doubleSided":false},{"pbrMetallicRoughness":{"baseColorFactor":[0.2,0.3411764705882353,0.2980392156862745,1.0],"roughnessFactor":0.85,"metallicFactor":0.0},"name":"shop_green","doubleSided":false},{"pbrMetallicRoughness":{"baseColorFactor":[0.3215686274509804,0.5019607843137255,0.5490196078431373,0.6509803921568628],"roughnessFactor":0.22,"metallicFactor":0.0},"name":"glass","doubleSided":false},{"pbrMetallicRoughness":{"baseColorFactor":[0.12156862745098039,0.1411764705882353,0.14901960784313725,1.0],"roughnessFactor":0.85,"metallicFactor":0.0},"name":"dark","doubleSided":false},{"pbrMetallicRoughness":{"baseColorFactor":[0.788235294117647,0.7215686274509804,0.5803921568627451,1.0],"roughnessFactor":0.6,"metallicFactor":0.0},"name":"cream","doubleSided":false},{"pbrMetallicRoughness":{"baseColorFactor":[0.6392156862745098,0.3411764705882353,0.23921568627450981,1.0],"roughnessFactor":0.85,"metallicFactor":0.0},"name":"brick_light","doubleSided":false},{"pbrMetallicRoughness":{"baseColorFactor":[0.23137254901960785,0.25098039215686274,0.25098039215686274,1.0],"roughnessFactor":0.85,"metallicFactor":0.25},"name":"metal","doubleSided":false},{"pbrMetallicRoughness":{"baseColorFactor":[0.23137254901960785,0.25098039215686274,0.25098039215686274,1.0],"roughnessFactor":0.85,"metallicFactor":0.3},"name":"metal","doubleSided":false}],"nodes":[{"name":"world","children":[1,2,3,4,5,6,7,8,9,10,11,12,13,14]},{"name":"ShopShell","mesh":0,"matrix":[1.0,0.0,0.0,0.0,0.0,1.0,0.0,0.0,0.0,0.0,1.0,0.0,0.0,1.7,0.0,1.0]},{"name":"FlatRoof","mesh":1,"matrix":[1.0,0.0,0.0,0.0,0.0,1.0,0.0,0.0,0.0,0.0,1.0,0.0,0.0,3.48,0.0,1.0]},{"name":"Fascia","mesh":2,"matrix":[1.0,0.0,0.0,0.0,0.0,1.0,0.0,0.0,0.0,0.0,1.0,0.0,0.0,2.45,-2.48,1.0]},{"name":"Awning","mesh":3,"matrix":[1.0,0.0,0.0,0.0,0.0,1.0,0.0,0.0,0.0,0.0,1.0,0.0,0.0,2.04,-2.82,1.0]},{"name":"WindowL","mesh":4,"matrix":[1.0,0.0,0.0,0.0,0.0,1.0,0.0,0.0,0.0,0.0,1.0,0.0,-1.55,1.18,-2.44,1.0]},{"name":"WindowR","mesh":5,"matrix":[1.0,0.0,0.0,0.0,0.0,1.0,0.0,0.0,0.0,0.0,1.0,0.0,1.08,1.18,-2.44,1.0]},{"name":"Door","mesh":6,"matrix":[1.0,0.0,0.0,0.0,0.0,1.0,0.0,0.0,0.0,0.0,1.0,0.0,2.55,1.18,-2.45,1.0]},{"name":"Frame","mesh":11,"matrix":[1.0,0.0,0.0,0.0,0.0,1.0,0.0,0.0,0.0,0.0,1.0,0.0,3.07,1.18,-2.51,1.0]},{"name":"DoorFrame","mesh":12,"matrix":[1.0,0.0,0.0,0.0,0.0,1.0,0.0,0.0,0.0,0.0,1.0,0.0,3.07,1.18,-2.51,1.0]},{"name":"ShopSignPanel","mesh":13,"matrix":[1.0,0.0,0.0,0.0,0.0,1.0,0.0,0.0,0.0,0.0,1.0,0.0,-0.5,2.55,-2.57,1.0]},{"name":"SideExtension","mesh":14,"matrix":[1.0,0.0,0.0,0.0,0.0,1.0,0.0,0.0,0.0,0.0,1.0,0.0,3.85,1.3,0.0,1.0]},{"name":"Drainpipe","mesh":15,"matrix":[1.0,0.0,0.0,0.0,0.0,6.123233995736766e-17,1.0,0.0,0.0,-1.0,6.123233995736766e-17,0.0,3.38,1.6,-2.45,1.0]},{"name":"Vent1","mesh":16,"matrix":[1.0,0.0,0.0,0.0,0.0,6.123233995736766e-17,1.0,0.0,0.0,-1.0,6.123233995736766e-17,0.0,-1.6,3.85,0.8,1.0]},{"name":"Vent2","mesh":17,"matrix":[1.0,0.0,0.0,0.0,0.0,6.123233995736766e-17,1.0,0.0,0.0,-1.0,6.123233995736766e-17,0.0,1.3,3.85,1.4,1.0]}],"buffers":[{"byteLength":2400,"uri":"data:application/octet-stream;base64,"}],"bufferViews":[{"buffer":0,"byteOffset":0,"byteLength":144},{"buffer":0,"byteOffset":144,"byteLength":96},{"buffer":0,"byteOffset":240,"byteLength":96},{"buffer":0,"byteOffset":336,"byteLength":96},{"buffer":0,"byteOffset":432,"byteLength":96},{"buffer":0,"byteOffset":528,"byteLength":96},{"buffer":0,"byteOffset":624,"byteLength":96},{"buffer":0,"byteOffset":720,"byteLength":96},{"buffer":0,"byteOffset":816,"byteLength":96},{"buffer":0,"byteOffset":912,"byteLength":96},{"buffer":0,"byteOffset":1008,"byteLength":96},{"buffer":0,"byteOffset":1104,"byteLength":96},{"buffer":0,"byteOffset":1200,"byteLength":576},{"buffer":0,"byteOffset":1776,"byteLength":312},{"buffer":0,"byteOffset":2088,"byteLength":312}]}