{"scene":0,"scenes":[{"nodes":[0]}],"asset":{"version":"2.0","generator":"https://github.com/mikedh/trimesh"},"accessors":[{"componentType":5125,"type":"SCALAR","bufferView":0,"count":48,"max":[9],"min":[0]},{"componentType":5126,"type":"VEC3","byteOffset":0,"bufferView":1,"count":10,"max":[2.4000000953674316,4.650000095367432,2.5999999046325684],"min":[-2.4000000953674316,0.0,-2.5999999046325684]},{"componentType":5125,"type":"SCALAR","bufferView":2,"count":36,"max":[7],"min":[0]},{"componentType":5126,"type":"VEC3","byteOffset":0,"bufferView":3,"count":8,"max":[2.575000047683716,0.07999999821186066,1.9500000476837158],"min":[-2.575000047683716,-0.07999999821186066,-1.9500000476837158]},{"componentType":5126,"type":"VEC3","byteOffset":0,"bufferView":4,"count":8,"max":[0.5,0.4749999940395355,0.05000000074505806],"min":[-0.5,-0.4749999940395355,-0.05000000074505806]},{"componentType":5126,"type":"VEC3","byteOffset":0,"bufferView":5,"count":8,"max":[0.5,0.5249999761581421,0.05000000074505806],"min":[-0.5,-0.5249999761581421,-0.05000000074505806]},{"componentType":5126,"type":"VEC3","byteOffset":0,"bufferView":6,"count":8,"max":[0.4749999940395355,1.0,0.05999999865889549],"min":[-0.4749999940395355,-1.0,-0.05999999865889549]},{"componentType":5126,"type":"VEC3","byteOffset":0,"bufferView":7,"count":8,"max":[0.5899999737739563,0.05000000074505806,0.11999999731779099],"min":[-0.5899999737739563,-0.05000000074505806,-0.11999999731779099]},{"componentType":5126,"type":"VEC3","byteOffset":0,"bufferView":8,"count":8,"max":[0.25999999046325684,0.574999988079071,0.3100000023841858],"min":[-0.25999999046325684,-0.574999988079071,-0.3100000023841858]},{"componentType":5125,"type":"SCALAR","bufferView":9,"count":216,"max":[37],"min":[0]},{"componentType":5126,"type":"VEC3","byteOffset":0,"bufferView":10,"count":38,"max":[0.2800000011920929,0.2757461667060852,0.03999999910593033],"min":[-0.2800000011920929,-0.2757461667060852,-0.03999999910593033]},{"componentType":5126,"type":"VEC3","byteOffset":0,"bufferView":11,"count":8,"max":[2.450000047683716,0.32499998807907104,0.14000000059604645],"min":[-2.450000047683716,-0.32499998807907104,-0.14000000059604645]}],"meshes":[{"name":"TerraceBody","extras":{"processed":true},"primitives":[{"attributes":{"POSITION":1},"indices":0,"mode":4,"material":0}]},{"name":"RoofSlopeProxyA","extras":{"shape":"box","extents":[5.15,0.16,3.9]},"primitives":[{"attributes":{"POSITION":3},"indices":2,"mode":4,"material":1}]},{"name":"UpperWindow","extras":{"shape":"box","extents":[1.0,0.95,0.1]},"primitives":[{"attributes":{"POSITION":4},"indices":2,"mode":4,"material":2}]},{"name":"LowerWindow","extras":{"shape":"box","extents":[1.0,1.05,0.1]},"primitives":[{"attributes":{"POSITION":5},"indices":2,"mode":4,"material":2}]},{"name":"UpperWindow_1","extras":{"shape":"box","extents":[1.0,0.95,0.1]},"primitives":[{"attributes":{"POSITION":4},"indices":2,"mode":4,"material":2}]},{"name":"LowerWindow_1","extras":{"shape":"box","extents":[1.0,1.05,0.1]},"primitives":[{"attributes":{"POSITION":5},"indices":2,"mode":4,"material":2}]},{"name":"FrontDoor","extras":{"shape":"box","extents":[0.95,2.0,0.12]},"primitives":[{"attributes":{"POSITION":6},"indices":2,"mode":4,"material":3}]},{"name":"WindowSill","extras":{"shape":"box","extents":[1.18,0.1,0.24]},"primitives":[{"attributes":{"POSITION":7},"indices":2,"mode":4,"material":4}]},{"name":"WindowSill_1","extras":{"shape":"box","extents":[1.18,0.1,0.24]},"primitives":[{"attributes":{"POSITION":7},"indices":2,"mode":4,"material":4}]},{"name":"WindowSill_2","extras":{"shape":"box","extents":[1.18,0.1,0.24]},"primitives":[{"attributes":{"POSITION":7},"indices":2,"mode":4,"material":4}]},{"name":"WindowSill_3","extras":{"shape":"box","extents":[1.18,0.1,0.24]},"primitives":[{"attributes":{"POSITION":7},"indices":2,"mode":4,"material":4}]},{"name":"Chimney","extras":{"shape":"box","extents":[0.52,1.15,0.62]},"primitives":[{"attributes":{"POSITION":8},"indices":2,"mode":4,"material":0}]},{"name":"SatelliteDish","extras":{"shape":"cylinder","height":0.08,"radius":0.28,"processed":true},"primitives":[{"attributes":{"POSITION":10},"indices":9,"mode":4,"material":5}]},{"name":"FrontWall","extras":{"shape":"box","extents":[4.9,0.65,0.28]},"primitives":[{"attributes":{"POSITION":11},"indices":2,"mode":4,"material":6}]}],"materials":[{"pbrMetallicRoughness":{"baseColorFactor":[0.5019607843137255,0.25098039215686274,0.1803921568627451,1.0],"roughnessFactor":0.85,"metallicFactor":0.0},"name":"brick","doubleSided":false},{"pbrMetallicRoughness":{"baseColorFactor":[0.2196078431372549,0.2,0.1803921568627451,1.0],"roughnessFactor":0.85,"metallicFactor":0.0},"name":"roof","doubleSided":false},{"pbrMetallicRoughness":{"baseColorFactor":[0.3215686274509804,0.5019607843137255,0.5490196078431373,0.6509803921568628],"roughnessFactor":0.25,"metallicFactor":0.0},"name":"glass","doubleSided":false},{"pbrMetallicRoughness":{"baseColorFactor":[0.2,0.3411764705882353,0.2980392156862745,1.0],"roughnessFactor":0.85,"metallicFactor":0.0},"name":"shop_green","doubleSided":false},{"pbrMetallicRoughness":{"baseColorFactor":[0.788235294117647,0.7215686274509804,0.5803921568627451,1.0],"roughnessFactor":0.85,"metallicFactor":0.0},"name":"cream","doubleSided":false},{"pbrMetallicRoughness":{"baseColorFactor":[0.23137254901960785,0.25098039215686274,0.25098039215686274,1.0],"roughnessFactor":0.85,"metallicFactor":0.3},"name":"metal","doubleSided":false},{"pbrMetallicRoughness":{"baseColorFactor":[0.6392156862745098,0.3411764705882353,0.23921568627450981,1.0],"roughnessFactor":0.85,"metallicFactor":0.0},"name":"brick_light","doubleSided":false}],"nodes":[{"name":"world","children":[1,2,3,4,5,6,7,8,9]},{"name":"TerraceBody","mesh":0},{"name":"RoofSlopeProxyA","mesh":1,"matrix":[1.0,0.0,0.0,0.0,0.0,1.0,0.0,0.0,0.0,0.0,1.0,0.0,0.0,4.05,-0.72,1.0]},{"name":"UpperWindow","mesh":4,"matrix":[1.0,0.0,0.0,0.0,0.0,1.0,0.0,0.0,0.0,0.0,1.0,0.0,1.05,2.15,-2.64,1.0]},{"name":"LowerWindow","mesh":5,"matrix":[1.0,0.0,0.0,0.0,0.0,1.0,0.0,0.0,0.0,0.0,1.0,0.0,1.05,0.95,-2.64,1.0]},{"name":"FrontDoor","mesh":6,"matrix":[1.0,0.0,0.0,0.0,0.0,1.0,0.0,0.0,0.0,0.0,1.0,0.0,0.1,1.02,-2.65,1.0]},{"name":"WindowSill","mesh":10,"matrix":[1.0,0.0,0.0,0.0,0.0,1.0,0.0,0.0,0.0,0.0,1.0,0.0,1.05,1.62,-2.73,1.0]},{"name":"Chimney","mesh":11,"matrix":[1.0,0.0,0.0,0.0,0.0,1.0,0.0,0.0,0.0,0.0,1.0,0.0,-1.4,4.15,0.55,1.0]},{"name":"SatelliteDish","mesh":12,"matrix":[1.0,0.0,0.0,0.0,0.0,6.123233995736766e-17,1.0,0.0,0.0,-1.0,6.123233995736766e-17,0.0,2.15,3.25,0.8,1.0]},{"name":"FrontWall","mesh":13,"matrix":[1.0,0.0,0.0,0.0,0.0,1.0,0.0,0.0,0.0,0.0,1.0,0.0,0.0,0.32,-3.35,1.0]}],"buffers":[{"byteLength":2448,"uri":"data:application/octet-stream;base64,"}],"bufferViews":[{"buffer":0,"byteOffset":0,"byteLength":192},{"buffer":0,"byteOffset":192,"byteLength":120},{"buffer":0,"byteOffset":312,"byteLength":144},{"buffer":0,"byteOffset":456,"byteLength":96},{"buffer":0,"byteOffset":552,"byteLength":96},{"buffer":0,"byteOffset":648,"byteLength":96},{"buffer":0,"byteOffset":744,"byteLength":96},{"buffer":0,"byteOffset":840,"byteLength":96},{"buffer":0,"byteOffset":936,"byteLength":96},{"buffer":0,"byteOffset":1032,"byteLength":864},{"buffer":0,"byteOffset":1896,"byteLength":456},{"buffer":0,"byteOffset":2352,"byteLength":96}]}